#!OML:ASF I:\golf\golf\golf 2\Subject 1\2002-09-07\Subject1.ASF
:FULLY-SPECIFIED
:DEGREES
264
root -7.27433 17.6547 5.25436 -1.35114 33.5188 -10.4295
lowerback 2.32105 -10.4268 -18.9766
upperback -0.968504 -14.2329 -4.45881
thorax 0.999251 -6.94044 5.18136
lowerneck -3.37054 22.4789 1.24962
upperneck 11.7028 32.3173 -13.0101
head 6.52476 14.891 -1.53798
rclavicle 6.2816e-014 0
rhumerus 22.3705 -19.4391 -67.8119
rradius 106.064
rwrist -10.6504
rhand -59.9416 26.9294
rfingers 7.12502
rthumb -32.0963 -0.257236
lclavicle 6.2816e-014 0
lhumerus 104.305 -47.0182 46.0576
lradius 33.9878
lwrist 3.54231
lhand -12.2141 5.29334
lfingers 7.12502
lthumb -166.149 214.812
rfemur -26.153 15.2339 29.2487
rtibia 34.4687
rfoot 0.0934909 32.0165
rtoes 38.4953
lfemur 1.02323 17.9527 10.4814
ltibia 40.211
lfoot 15.7596 13.5412
ltoes -30.8284
265
root -7.27404 17.6534 5.27406 -1.11692 33.3448 -10.1815
lowerback 2.33008 -10.4917 -18.9709
upperback -1.06972 -14.3342 -4.50678
thorax 0.89171 -6.97529 5.13379
lowerneck -3.53004 22.5743 1.17007
upperneck 11.6384 32.434 -12.9432
head 6.51404 14.9441 -1.48696
rclavicle 1.43125e-014 1.90833e-014
rhumerus 23.1304 -19.7163 -66.8271
rradius 106.365
rwrist -9.70217
rhand -60.2568 27.9233
rfingers 7.12502
rthumb -32.3962 0.797594
lclavicle 1.43125e-014 1.90833e-014
lhumerus 105.189 -46.3534 45.5469
lradius 34.6609
lwrist 4.15923
lhand -12.9293 4.71447
lfingers 7.12502
lthumb -166.839 214.279
rfemur -26.1692 15.3718 29.0998
rtibia 34.4051
rfoot 0.210952 32.0657
rtoes 38.6603
lfemur 1.04186 17.8522 10.265
ltibia 40.163
lfoot 15.8977 13.7887
ltoes -30.0021
266
root -7.27532 17.6534 5.29255 -0.882433 33.1245 -9.89687
lowerback 2.31938 -10.5248 -19.0323
upperback -1.12647 -14.3836 -4.55476
thorax 0.847426 -6.99138 5.11271
lowerneck -3.75566 22.6739 1.24931
upperneck 11.8476 32.6125 -12.893
head 6.63423 15.0038 -1.41729
rclavicle 1.46306e-013 9.54166e-015
rhumerus 23.9059 -20.0713 -65.911
rradius 106.596
rwrist -8.58328
rhand -60.7592 29.0115
rfingers 7.12502
rthumb -32.8743 1.98482
lclavicle 1.46306e-013 9.54166e-015
lhumerus 106.185 -45.6673 44.984
lradius 35.2317
lwrist 4.53207
lhand -13.4758 4.01377
lfingers 7.12502
lthumb -167.365 213.612
rfemur -26.1609 15.8124 28.8824
rtibia 34.3165
rfoot 0.265865 31.8347
rtoes 38.7913
lfemur 1.09877 17.7573 10.0253
ltibia 40.119
lfoot 16.1505 13.8084
ltoes -29.8616
267
root -7.27965 17.6567 5.31146 -0.674449 32.8781 -9.7317
lowerback 2.28156 -10.5407 -19.019
upperback -1.19786 -14.4059 -4.57043
thorax 0.787693 -6.99374 5.09021
lowerneck -3.99394 22.7171 1.24831
upperneck 12.0605 32.696 -12.7317
head 6.71859 15.0244 -1.32622
rclavicle 1.53462e-013 4.45278e-014
rhumerus 24.6535 -20.4807 -65.046
rradius 106.774
rwrist -7.39286
rhand -61.1108 29.6316
rfingers 7.12502
rthumb -33.2087 2.67567
lclavicle 1.53462e-013 4.45278e-014
lhumerus 107.118 -45.0944 44.6542
lradius 35.6404
lwrist 4.64033
lhand -13.8987 3.43738
lfingers 7.12502
lthumb -167.773 213.06
rfemur -26.1881 16.4565 28.7218
rtibia 34.2114
rfoot 0.277997 31.4474
rtoes 38.9108
lfemur 1.12702 17.7499 9.93232
ltibia 40.0779
lfoot 16.4799 13.8662
ltoes -29.4447
268
root -7.28162 17.6546 5.32865 -0.504589 32.668 -9.60263
lowerback 2.28363 -10.5603 -18.953
upperback -1.28738 -14.4447 -4.59798
thorax 0.674429 -6.99962 5.04106
lowerneck -3.99901 22.7281 1.06403
upperneck 11.677 32.6262 -12.6623
head 6.54871 15.023 -1.33013
rclavicle 5.80451e-014 1.59028e-014
rhumerus 25.3327 -20.849 -64.2489
rradius 106.929
rwrist -6.16109
rhand -61.5 30.3679
rfingers 7.12502
rthumb -33.5786 3.49157
lclavicle 5.80451e-014 1.59028e-014
lhumerus 107.931 -44.5809 44.4076
lradius 35.9686
lwrist 4.46793
lhand -14.8006 2.90598
lfingers 7.12502
lthumb -168.643 212.578
rfemur -26.1981 16.7633 28.6556
rtibia 34.1113
rfoot 0.346679 31.4063
rtoes 39.0246
lfemur 1.15956 17.703 9.88081
ltibia 40.0374
lfoot 16.7342 13.9668
ltoes -28.617
269
root -7.28073 17.6557 5.34302 -0.303463 32.4692 -9.35892
lowerback 2.2984 -10.5812 -18.9922
upperback -1.3392 -14.4838 -4.64569
thorax 0.614 -7.0101 5.01649
lowerneck -4.02484 22.7621 0.96983
upperneck 11.3382 32.6187 -12.724
head 6.43872 15.0383 -1.35726
rclavicle -1.74931e-014 -8.5875e-014
rhumerus 25.9965 -21.2799 -63.5225
rradius 107.049
rwrist -4.91045
rhand -62.032 30.9028
rfingers 7.12502
rthumb -34.0841 4.13773
lclavicle -1.74931e-014 -8.5875e-014
lhumerus 108.536 -44.1485 44.322
lradius 36.3238
lwrist 4.09864
lhand -15.6051 2.36436
lfingers 7.12502
lthumb -169.419 212.078
rfemur -26.1805 16.9045 28.497
rtibia 34.0394
rfoot 0.243512 31.4871
rtoes 38.7874
lfemur 1.24193 17.5853 9.68979
ltibia 39.9881
lfoot 16.8618 14.0888
ltoes -27.777
270
root -7.27885 17.6611 5.35745 -0.12973 32.2407 -9.14662
lowerback 2.27158 -10.5772 -19.0375
upperback -1.36314 -14.4767 -4.65978
thorax 0.607397 -7.00428 5.02127
lowerneck -4.11187 22.8449 0.892449
upperneck 11.2751 32.7332 -12.7625
head 6.43551 15.0868 -1.34068
rclavicle 5.88403e-014 5.725e-014
rhumerus 26.6472 -21.808 -62.7884
rradius 107.146
rwrist -3.58667
rhand -62.4453 30.4781
rfingers 7.12502
rthumb -34.4765 3.80136
lclavicle 5.88403e-014 5.725e-014
lhumerus 109.146 -43.7335 44.2833
lradius 36.6584
lwrist 3.79661
lhand -16.2733 1.88514
lfingers 7.12502
lthumb -170.063 211.631
rfemur -26.1681 17.1142 28.3323
rtibia 34.017
rfoot 0.0991937 31.5118
rtoes 38.5788
lfemur 1.38583 17.5165 9.54315
ltibia 39.9103
lfoot 17.122 13.9118
ltoes -27.4265
